<svg aria-hidden="true" style="position: absolute; width: 0; height: 0; overflow: hidden;" version="1.1" xmlns="http://www.w3.org/2000/svg" xmlns:xlink="http://www.w3.org/1999/xlink">
  <defs>
    <symbol id="icon-plus" viewBox="0 0 24 24">
      <path d="M19 11h-6v-6c0-0.6-0.4-1-1-1s-1 0.4-1 1v6h-6c-0.6 0-1 0.4-1 1s0.4 1 1 1h6v6c0 0.6 0.4 1 1 1s1-0.4 1-1v-6h6c0.6 0 1-0.4 1-1s-0.4-1-1-1z"></path>
    </symbol>
    <symbol id="icon-star-full" viewBox="0 0 32 32">
      <path d="M32 12.408l-11.056-1.607-4.944-10.018-4.944 10.018-11.056 1.607 8 7.798-1.889 11.011 9.889-5.199 9.889 5.199-1.889-11.011 8-7.798z">
      </path>
    </symbol>
    <symbol id="icon-info" viewBox="0 0 10 28">
      <title>info</title>
      <path d="M10 21v2c0 0.547-0.453 1-1 1h-8c-0.547 0-1-0.453-1-1v-2c0-0.547 0.453-1 1-1h1v-6h-1c-0.547 0-1-0.453-1-1v-2c0-0.547 0.453-1 1-1h6c0.547 0 1 0.453 1 1v9h1c0.547 0 1 0.453 1 1zM8 3v3c0 0.547-0.453 1-1 1h-4c-0.547 0-1-0.453-1-1v-3c0-0.547 0.453-1 1-1h4c0.547 0 1 0.453 1 1z"></path>
    </symbol>
  </defs>
</svg>
